<svg width="15" height="16" viewBox="0 0 15 16" fill="none" xmlns="http://www.w3.org/2000/svg">
<path d="M1 4.11106H13.4444" stroke="#E0665C" stroke-width="1.5" stroke-linecap="round" stroke-linejoin="round"/>
<path d="M1.77832 4.11133L2.5561 13.4447C2.5561 14.3038 3.25254 15.0002 4.11165 15.0002H10.3339C11.193 15.0002 11.8894 14.3038 11.8894 13.4447L12.6672 4.11133" stroke="#E0665C" stroke-width="1.5" stroke-linecap="round" stroke-linejoin="round"/>
<path d="M4.88965 4.11111V1.77778C4.88965 1.34822 5.23787 1 5.66743 1H8.77854C9.20809 1 9.55631 1.34822 9.55631 1.77778V4.11111" stroke="#E0665C" stroke-width="1.5" stroke-linecap="round" stroke-linejoin="round"/>
<path d="M6.1983 7.46918C5.90541 7.17629 5.43053 7.17629 5.13764 7.46918C4.84475 7.76207 4.84475 8.23695 5.13764 8.52984L6.1983 7.46918ZM8.24875 11.641C8.54164 11.9338 9.01652 11.9338 9.30941 11.641C9.6023 11.3481 9.6023 10.8732 9.30941 10.5803L8.24875 11.641ZM9.30941 8.52984C9.6023 8.23695 9.6023 7.76207 9.30941 7.46918C9.01652 7.17629 8.54164 7.17629 8.24875 7.46918L9.30941 8.52984ZM5.13764 10.5803C4.84475 10.8732 4.84475 11.3481 5.13764 11.641C5.43053 11.9338 5.90541 11.9338 6.1983 11.641L5.13764 10.5803ZM5.13764 8.52984L8.24875 11.641L9.30941 10.5803L6.1983 7.46918L5.13764 8.52984ZM8.24875 7.46918L5.13764 10.5803L6.1983 11.641L9.30941 8.52984L8.24875 7.46918Z" fill="#E0665C"/>
</svg>
