<svg width="20" height="20" viewBox="0 0 20 20" fill="none" xmlns="http://www.w3.org/2000/svg">
<circle cx="10" cy="9.1665" r="2.5" stroke="#4B465C" stroke-width="1.5" stroke-linecap="round" stroke-linejoin="round"/>
<circle cx="10" cy="9.1665" r="2.5" stroke="white" stroke-opacity="0.2" stroke-width="1.5" stroke-linecap="round" stroke-linejoin="round"/>
<path fill-rule="evenodd" clip-rule="evenodd" d="M14.7141 13.8806L11.1783 17.4164C10.5276 18.0665 9.47322 18.0665 8.82248 17.4164L5.28581 13.8806C2.68242 11.2771 2.68249 7.05602 5.28597 4.45258C7.88946 1.84914 12.1105 1.84914 14.714 4.45258C17.3175 7.05602 17.3175 11.2771 14.7141 13.8806V13.8806Z" stroke="#4B465C" stroke-width="1.5" stroke-linecap="round" stroke-linejoin="round"/>
<path fill-rule="evenodd" clip-rule="evenodd" d="M14.7141 13.8806L11.1783 17.4164C10.5276 18.0665 9.47322 18.0665 8.82248 17.4164L5.28581 13.8806C2.68242 11.2771 2.68249 7.05602 5.28597 4.45258C7.88946 1.84914 12.1105 1.84914 14.714 4.45258C17.3175 7.05602 17.3175 11.2771 14.7141 13.8806V13.8806Z" stroke="white" stroke-opacity="0.2" stroke-width="1.5" stroke-linecap="round" stroke-linejoin="round"/>
</svg>
