<svg width="26" height="26" viewBox="0 0 26 26" fill="none" xmlns="http://www.w3.org/2000/svg">
<path fill-rule="evenodd" clip-rule="evenodd" d="M12.9999 3.24988C13.1429 3.24988 13.2848 3.24988 13.4256 3.24988C10.5539 5.91831 9.9969 10.2567 12.1015 13.564C14.2061 16.8713 18.372 18.2043 22.0056 16.733C20.1285 21.2496 15.1956 23.6765 10.472 22.4072C5.74852 21.1379 2.69637 16.5654 3.33592 11.7163C3.97547 6.86722 8.10877 3.24239 12.9999 3.24121V3.24988Z" stroke="#4B465C" stroke-width="2" stroke-linecap="round" stroke-linejoin="round"/>
<path fill-rule="evenodd" clip-rule="evenodd" d="M12.9999 3.24988C13.1429 3.24988 13.2848 3.24988 13.4256 3.24988C10.5539 5.91831 9.9969 10.2567 12.1015 13.564C14.2061 16.8713 18.372 18.2043 22.0056 16.733C20.1285 21.2496 15.1956 23.6765 10.472 22.4072C5.74852 21.1379 2.69637 16.5654 3.33592 11.7163C3.97547 6.86722 8.10877 3.24239 12.9999 3.24121V3.24988Z" stroke="white" stroke-opacity="0.2" stroke-width="2" stroke-linecap="round" stroke-linejoin="round"/>
<path d="M18.4167 4.3335C18.4167 5.53011 19.3867 6.50016 20.5833 6.50016C19.3867 6.50016 18.4167 7.47021 18.4167 8.66683C18.4167 7.47021 17.4466 6.50016 16.25 6.50016C17.4466 6.50016 18.4167 5.53011 18.4167 4.3335" stroke="#4B465C" stroke-width="2" stroke-linecap="round" stroke-linejoin="round"/>
<path d="M18.4167 4.3335C18.4167 5.53011 19.3867 6.50016 20.5833 6.50016C19.3867 6.50016 18.4167 7.47021 18.4167 8.66683C18.4167 7.47021 17.4466 6.50016 16.25 6.50016C17.4466 6.50016 18.4167 5.53011 18.4167 4.3335" stroke="white" stroke-opacity="0.2" stroke-width="2" stroke-linecap="round" stroke-linejoin="round"/>
<path d="M20.5835 10.9168C20.0312 10.9168 19.5835 11.3645 19.5835 11.9168C19.5835 12.4691 20.0312 12.9168 20.5835 12.9168V10.9168ZM22.7502 12.9168C23.3024 12.9168 23.7502 12.4691 23.7502 11.9168C23.7502 11.3645 23.3024 10.9168 22.7502 10.9168V12.9168ZM22.6668 10.8335C22.6668 10.2812 22.2191 9.8335 21.6668 9.8335C21.1145 9.8335 20.6668 10.2812 20.6668 10.8335H22.6668ZM20.6668 13.0002C20.6668 13.5524 21.1145 14.0002 21.6668 14.0002C22.2191 14.0002 22.6668 13.5524 22.6668 13.0002H20.6668ZM20.5835 12.9168H22.7502V10.9168H20.5835V12.9168ZM20.6668 10.8335V13.0002H22.6668V10.8335H20.6668Z" fill="#4B465C"/>
<path d="M20.5835 10.9168C20.0312 10.9168 19.5835 11.3645 19.5835 11.9168C19.5835 12.4691 20.0312 12.9168 20.5835 12.9168V10.9168ZM22.7502 12.9168C23.3024 12.9168 23.7502 12.4691 23.7502 11.9168C23.7502 11.3645 23.3024 10.9168 22.7502 10.9168V12.9168ZM22.6668 10.8335C22.6668 10.2812 22.2191 9.8335 21.6668 9.8335C21.1145 9.8335 20.6668 10.2812 20.6668 10.8335H22.6668ZM20.6668 13.0002C20.6668 13.5524 21.1145 14.0002 21.6668 14.0002C22.2191 14.0002 22.6668 13.5524 22.6668 13.0002H20.6668ZM20.5835 12.9168H22.7502V10.9168H20.5835V12.9168ZM20.6668 10.8335V13.0002H22.6668V10.8335H20.6668Z" fill="white" fill-opacity="0.2"/>
</svg>
